HIERARCHY
ROOT Hips
{
 OFFSET 0.000000 0.000000 0.000000
 CHANNELS 6 Xposition Yposition Zposition Yrotation Xrotation Zrotation
 JOINT Chest
 {
  OFFSET 0.000000 9.585900 0.002600
  CHANNELS 3 Yrotation Xrotation Zrotation
  JOINT Chest2
  {
   OFFSET 0.000000 9.601200 -0.005300
   CHANNELS 3 Yrotation Xrotation Zrotation
   JOINT Chest3
   {
    OFFSET 0.000000 9.561800 0.000000
    CHANNELS 3 Yrotation Xrotation Zrotation
    JOINT Chest4
    {
     OFFSET 0.000000 9.552100 0.000000
     CHANNELS 3 Yrotation Xrotation Zrotation
     JOINT Neck
     {
      OFFSET 0.000000 14.453000 0.000000
      CHANNELS 3 Yrotation Xrotation Zrotation
      JOINT Head
      {
       OFFSET 0.000000 8.936500 -0.011300
       CHANNELS 3 Yrotation Xrotation Zrotation
       End Site
       {
        OFFSET 0.000000 17.073600 -0.006000
       }
      }
     }
     JOINT RightCollar
     {
      OFFSET -2.921100 9.558500 0.000000
      CHANNELS 3 Yrotation Xrotation Zrotation
      JOINT RightShoulder
      {
       OFFSET -13.519700 0.000000 0.000000
       CHANNELS 3 Yrotation Xrotation Zrotation
       JOINT RightElbow
       {
        OFFSET 0.000000 -29.696600 0.000000
        CHANNELS 3 Yrotation Xrotation Zrotation
        JOINT RightWrist
        {
         OFFSET 0.000000 -24.004700 0.000000
         CHANNELS 3 Yrotation Xrotation Zrotation
         End Site
         {
          OFFSET 0.000000 -17.728500 0.000000
         }
        }
       }
      }
     }
     JOINT LeftCollar
     {
      OFFSET 2.921100 9.558500 0.000000
      CHANNELS 3 Yrotation Xrotation Zrotation
      JOINT LeftShoulder
      {
       OFFSET 13.519700 0.000000 0.000000
       CHANNELS 3 Yrotation Xrotation Zrotation
       JOINT LeftElbow
       {
        OFFSET 0.000000 -29.696600 0.000000
        CHANNELS 3 Yrotation Xrotation Zrotation
        JOINT LeftWrist
        {
         OFFSET 0.000000 -24.004700 0.000000
         CHANNELS 3 Yrotation Xrotation Zrotation
         End Site
         {
          OFFSET 0.000000 -17.728500 0.000000
         }
        }
       }
      }
     }
    }
   }
  }
 }
 JOINT RightHip
 {
  OFFSET -7.771700 -0.012900 -0.001300
  CHANNELS 3 Yrotation Xrotation Zrotation
  JOINT RightKnee
  {
   OFFSET 0.000000 -40.869800 0.001200
   CHANNELS 3 Yrotation Xrotation Zrotation
   JOINT RightAnkle
   {
    OFFSET 0.000000 -39.717900 0.002100
    CHANNELS 3 Yrotation Xrotation Zrotation
    JOINT RightToe
    {
     OFFSET 0.000000 -4.965400 11.033500
     CHANNELS 3 Yrotation Xrotation Zrotation
     End Site
     {
      OFFSET 0.000000 -1.423100 5.872300
     }
    }
   }
  }
 }
 JOINT LeftHip
 {
  OFFSET 7.771700 -0.012900 -0.001300
  CHANNELS 3 Yrotation Xrotation Zrotation
  JOINT LeftKnee
  {
   OFFSET 0.000000 -40.869800 0.001200
   CHANNELS 3 Yrotation Xrotation Zrotation
   JOINT LeftAnkle
   {
    OFFSET 0.000000 -39.717900 0.002100
    CHANNELS 3 Yrotation Xrotation Zrotation
    JOINT LeftToe
    {
     OFFSET 0.000000 -4.965400 11.033500
     CHANNELS 3 Yrotation Xrotation Zrotation
     End Site
     {
      OFFSET 0.000000 -1.423100 5.872300
     }
    }
   }
  }
 }
}
MOTION
Frames: 6
Frame Time: 0.008333
-209.804892 57.958214 26.343476 172.993812 -46.808025 -3.347741 4.833461 22.307882 2.972191 2.464408 12.839305 1.536871 3.184311 15.922072 2.033985 2.461637 12.829643 1.541607 0.194417 12.723786 2.517160 -0.702113 -12.015802 4.712797 3.212998 1.705777 -0.000866 2.660962 -20.638383 -10.509814 -25.668083 -54.850792 62.465898 12.540869 10.746794 -18.667987 -11.573507 -1.617151 -1.101759 -2.152537 -18.423178 10.426622 16.196182 -57.922001 -43.919561 -10.462215 8.846463 14.655087 3.892979 -25.616225 -0.515729 -39.361202 73.573105 -41.888878 5.373576 -13.016996 10.183447 0.031635 -0.240740 0.013354 -3.999322 -24.072502 10.224270 54.674033 78.992297 54.896894 5.429771 -15.882296 -17.396218 0.107958 0.218674 0.057984
-209.805576 57.954929 26.349682 172.994633 -46.835099 -3.351168 4.840450 22.291838 2.984331 2.473969 12.825476 1.542174 3.183837 15.899004 2.040263 2.466689 12.847629 1.544809 0.167267 12.752397 2.505551 -0.735457 -12.044814 4.658685 3.166924 1.724113 0.032639 2.687012 -20.614584 -10.532950 -25.661708 -54.836648 62.463514 12.562691 10.747560 -18.610482 -11.595868 -1.558912 -1.111132 -2.084727 -18.568876 10.510143 16.253955 -57.782595 -44.098991 -10.519338 8.838289 14.605908 3.890541 -25.587984 -0.506553 -39.326261 73.559634 -41.856040 5.365907 -13.009823 10.185093 0.033538 -0.232805 0.013255 -4.000994 -24.051022 10.227580 54.692314 78.989723 54.909053 5.432916 -15.881772 -17.395366 0.094039 0.223702 0.054442
-209.807383 57.957145 26.351091 173.006080 -46.906632 -3.353070 4.837261 22.349438 2.985912 2.480130 12.778285 1.548665 3.180601 15.893794 2.043023 2.480047 12.773545 1.552223 0.137844 12.860131 2.489233 -0.765078 -12.073334 4.602421 3.123196 1.824906 0.065436 2.698933 -20.646421 -10.541537 -25.648821 -54.790458 62.457178 12.596536 10.779073 -18.560385 -11.613076 -1.430862 -1.135214 -2.027046 -18.664914 10.554649 16.342793 -57.704279 -44.282468 -10.563594 8.884091 14.581962 3.886407 -25.513728 -0.507055 -39.315285 73.555245 -41.846377 5.365524 -13.002001 10.183331 0.040327 -0.237947 0.015484 -4.000241 -23.982729 10.218141 54.689003 78.984906 54.901310 5.428241 -15.865010 -17.392346 0.091832 0.213147 0.054429
-209.809163 57.958138 26.354319 173.014211 -46.967432 -3.354613 4.835435 22.353821 2.990198 2.479400 12.773762 1.552349 3.182860 15.887639 2.047334 2.480814 12.768502 1.555629 0.115124 12.864473 2.462808 -0.788916 -12.069674 4.553829 3.090784 1.854190 0.094216 2.707833 -20.677794 -10.548663 -25.713322 -54.763577 62.527288 12.657399 10.847172 -18.456041 -11.614780 -1.395945 -1.133025 -1.981122 -18.711779 10.569169 16.360934 -57.632979 -44.368473 -10.597182 8.893341 14.555081 3.882680 -25.451059 -0.507602 -39.305730 73.551852 -41.838188 5.375652 -13.000236 10.179905 0.035432 -0.239007 0.017122 -3.998407 -23.922596 10.209145 54.679066 78.977858 54.889094 5.429186 -15.859678 -17.393578 0.093294 0.214094 0.055606
-209.810612 57.956211 26.360972 173.013996 -47.003752 -3.354679 4.838062 22.292095 3.001208 2.480623 12.764160 1.557833 3.179305 15.927420 2.051285 2.481404 12.763840 1.558814 0.095766 12.867905 2.431592 -0.816045 -12.071585 4.509662 3.063636 1.885999 0.122306 2.717396 -20.711369 -10.554835 -25.657260 -54.716252 62.484652 12.684859 10.856505 -18.409208 -11.620017 -1.348274 -1.140289 -1.941844 -18.766510 10.590413 16.356717 -57.558433 -44.423513 -10.629573 8.889396 14.532634 3.885603 -25.414772 -0.504031 -39.300030 73.541654 -41.834887 5.387151 -12.998952 10.184535 0.023864 -0.233504 0.013947 -3.997095 -23.890384 10.209554 54.681567 78.978582 54.889392 5.431508 -15.860151 -17.400203 0.094191 0.217088 0.059801
-209.813169 57.954155 26.368015 173.023053 -47.038566 -3.354992 4.832370 22.313481 2.998932 2.482405 12.699774 1.565374 3.176035 15.972218 2.050728 2.484280 12.726583 1.562905 0.071479 12.812016 2.383692 -0.839855 -12.019949 4.479005 3.033037 1.876245 0.177226 2.745461 -20.762669 -10.578201 -25.539556 -54.622316 62.379156 12.710828 10.862658 -18.371124 -11.621645 -1.304567 -1.147510 -1.911935 -18.815199 10.610004 16.375219 -57.495329 -44.494811 -10.666697 8.898663 14.516244 3.886175 -25.380048 -0.509644 -39.293550 73.537444 -41.827794 5.392444 -12.999039 10.185911 0.016626 -0.228613 0.011782 -4.006099 -23.861511 10.206892 54.706406 78.974341 54.902593 5.421178 -15.853716 -17.396047 0.099566 0.214168 0.056351
